<svg xmlns:rdf="http://www.w3.org/1999/02/22-rdf-syntax-ns#" xmlns="http://www.w3.org/2000/svg" xmlns:cc="http://creativecommons.org/ns#" xmlns:dc="http://purl.org/dc/elements/1.1/" enable-background="new 4.94 11.473 125 125" xml:space="preserve" height="17" width="119" version="1.1"><rect id="backgroundrect" width="100%" height="100%" x="0" y="0" fill="none" stroke="none"/><metadata id="metadata679"><rdf:RDF><cc:Work rdf:about=""><dc:format>image/svg+xml</dc:format><dc:type rdf:resource="http://purl.org/dc/dcmitype/StillImage"/><dc:title/></cc:Work></rdf:RDF></metadata><defs id="defs3"><radialGradient id="SVGID_1_" gradientUnits="userSpaceOnUse" cy="-427.1400146484375" cx="244.57000732421875" gradientTransform="matrix(1 0 0 -1 -213.76 -386.5)" r="68.68699645996094"><stop id="stop7" stop-color="#FFF" offset="0"/><stop id="stop9" stop-color="#EAEAEB" offset=".4835"/><stop id="stop11" stop-color="#A9ABAE" offset=".9451"/><stop id="stop13" stop-color="#999B9E" offset="1"/></radialGradient><linearGradient id="SVGID_3_" y2="582.9099731445312" gradientUnits="userSpaceOnUse" x2="502.7799987792969" gradientTransform="translate(-406.16 -500.32)" y1="510.1600036621094" x1="456.2699890136719"><stop id="stop29" stop-color="#8A8A8A" offset="0"/><stop id="stop31-3" stop-color="#606060" offset=".5687"/><stop id="stop33-6" stop-color="#FFF" offset=".5914"/><stop id="stop35-7" stop-color="#585858" offset=".6116"/><stop id="stop37-5" stop-color="#303030" offset="1"/></linearGradient><linearGradient id="SVGID_4_" y2="598.6599731445312" gradientUnits="userSpaceOnUse" x2="445.7900085449219" gradientTransform="translate(-406.16 -500.32)" y1="502.95001220703125" x1="425.2900085449219"><stop id="stop42-3" stop-color="#A8A9AB" offset="0"/><stop id="stop44-5" stop-color="#636668" offset="1"/></linearGradient><linearGradient id="SVGID_5_" y2="597.739990234375" gradientUnits="userSpaceOnUse" x2="441.07000732421875" gradientTransform="translate(-406.16 -500.32)" y1="504.3699951171875" x1="421.07000732421875"><stop id="stop49" stop-color="#A8A9AB" offset="0"/><stop id="stop51" stop-color="#636668" offset="1"/></linearGradient><linearGradient id="SVGID_6_" y2="550.8099975585938" gradientUnits="userSpaceOnUse" x2="473.8399963378906" gradientTransform="translate(-406.16 -500.32)" y1="550.8099975585938" x1="444.760009765625"><stop id="stop56" stop-color="#231F20" offset="0"/><stop id="stop58" stop-color="#474747" offset="1"/></linearGradient><linearGradient id="SVGID_7_" y2="-485.0299987792969" gradientUnits="userSpaceOnUse" x2="295.9599914550781" gradientTransform="matrix(1 0 0 -1 -213.76 -386.5)" y1="-395.2799987792969" x1="266.489990234375"><stop id="stop83" stop-color="#FFF" offset="0"/><stop id="stop85" stop-color="#FCFCFC" offset=".0094"/><stop id="stop87" stop-color="#EEEEEE" offset=".0655"/><stop id="stop89" stop-color="#E5E5E5" offset=".1342"/><stop id="stop91" stop-color="#E3E3E3" offset=".2515"/><stop id="stop93" stop-color="#8A8A8A" offset=".3357"/><stop id="stop95" stop-color="#B8B8B8" offset=".4422"/><stop id="stop97" stop-color="#3B3B3B" offset="1"/></linearGradient><linearGradient id="SVGID_8_" y2="573.3099975585938" gradientUnits="userSpaceOnUse" x2="509.5899963378906" gradientTransform="translate(-406.16 -500.32)" y1="512.5599975585938" x1="460.4599914550781"><stop id="stop102" stop-color="#EFF0F0" offset="0"/><stop id="stop104-6" stop-color="#F0F1F2" offset=".5914"/><stop id="stop106-2" stop-color="#787878" offset=".599"/><stop id="stop108-9" stop-color="#EEEFF0" offset=".6456"/><stop id="stop110-1" stop-color="#D8D9DB" offset="1"/></linearGradient><linearGradient id="SVGID_9_" y2="-482.9599914550781" gradientUnits="userSpaceOnUse" x2="302.4700012207031" gradientTransform="matrix(1 0 0 -1 -213.76 -386.5)" y1="-392.8299865722656" x1="272.8699951171875"><stop id="stop115" stop-color="#FFF" offset="0"/><stop id="stop117" stop-color="#E4E5E6" offset="1"/></linearGradient><linearGradient id="SVGID_10_" y2="592.0700073242188" gradientUnits="userSpaceOnUse" x2="469.7200012207031" gradientTransform="translate(-406.16 -500.32)" y1="510.9599914550781" x1="444.69000244140625"><stop id="stop122-2" stop-color="#FFF" offset="0"/><stop id="stop124-7" stop-color="#F9F9F9" offset=".7473"/><stop id="stop126-0" stop-color="#D5D7D8" offset="1"/></linearGradient><linearGradient id="SVGID_13_" y2="-490.19000244140625" gradientUnits="userSpaceOnUse" x2="255.2100067138672" gradientTransform="matrix(1 0 0 -1 -213.76 -386.5)" y1="-396.1600036621094" x1="274.5299987792969"><stop id="stop157" stop-color="#FFF" offset="0"/><stop id="stop159" stop-color="#E4E5E6" offset="1"/></linearGradient><linearGradient id="SVGID_14_" y2="578.1799926757812" gradientUnits="userSpaceOnUse" x2="427.2900085449219" gradientTransform="translate(-406.16 -500.32)" y1="518.760009765625" x1="422.55999755859375"><stop id="stop164-9" stop-color="#989A9C" offset=".2198"/><stop id="stop166-3" stop-color="#FFF" offset=".2527"/></linearGradient><linearGradient id="SVGID_15_" y2="-478.5" gradientUnits="userSpaceOnUse" x2="218.85000610351562" gradientTransform="matrix(1 0 0 -1 -213.76 -386.5)" y1="-388.3599853515625" x1="237.3699951171875"><stop id="stop171" stop-color="#FFF" offset="0"/><stop id="stop173" stop-color="#E4E5E6" offset="1"/></linearGradient><linearGradient id="SVGID_16_" y2="-479.3800048828125" gradientUnits="userSpaceOnUse" x2="259.8999938964844" gradientTransform="matrix(1 0 0 -1 -213.76 -386.5)" y1="-479.3399963378906" x1="259.9100036621094"><stop id="stop178-6" stop-color="#FFF" offset="0"/><stop id="stop180" stop-color="#E4E5E6" offset="1"/></linearGradient><linearGradient id="SVGID_17_" y2="-489.07000732421875" gradientUnits="userSpaceOnUse" x2="249.5" gradientTransform="matrix(1 0 0 -1 -213.76 -386.5)" y1="-394.6400146484375" x1="268.8999938964844"><stop id="stop189" stop-color="#FFF" offset="0"/><stop id="stop191" stop-color="#E4E5E6" offset="1"/></linearGradient><linearGradient id="SVGID_18_" y2="-486.1099853515625" gradientUnits="userSpaceOnUse" x2="235.02999877929688" gradientTransform="matrix(1 0 0 -1 -213.76 -386.5)" y1="-391.6000061035156" x1="254.4600067138672"><stop id="stop196" stop-color="#FFF" offset="0"/><stop id="stop198" stop-color="#E4E5E6" offset="1"/></linearGradient><linearGradient id="SVGID_19_" y2="-487.8399963378906" gradientUnits="userSpaceOnUse" x2="243.16000366210938" gradientTransform="matrix(1 0 0 -1 -213.76 -386.5)" y1="-392.9700012207031" x1="262.6499938964844"><stop id="stop203" stop-color="#FFF" offset="0"/><stop id="stop205" stop-color="#E4E5E6" offset="1"/></linearGradient><linearGradient id="SVGID_20_" y2="-490.0199890136719" gradientUnits="userSpaceOnUse" x2="251.19000244140625" gradientTransform="matrix(1 0 0 -1 -213.76 -386.5)" y1="-390.9599914550781" x1="271.54998779296875"><stop id="stop210" stop-color="#FFF" offset="0"/><stop id="stop212" stop-color="#E4E5E6" offset="1"/></linearGradient><linearGradient id="SVGID_21_" y2="-490.260009765625" gradientUnits="userSpaceOnUse" x2="255.25999450683594" gradientTransform="matrix(1 0 0 -1 -213.76 -386.5)" y1="-395.8399963378906" x1="274.6600036621094"><stop id="stop217-0" stop-color="#FFF" offset="0"/><stop id="stop219-6" stop-color="#E4E5E6" offset="1"/></linearGradient><linearGradient id="SVGID_22_" y2="-454.55999755859375" gradientUnits="userSpaceOnUse" x2="221.3699951171875" gradientTransform="matrix(1 0 0 -1 -213.76 -386.5)" y1="-454.55999755859375" x1="221.17999267578125"><stop id="stop248" stop-color="#808080" offset="0"/><stop id="stop250" stop-color="#7A7A7A" offset=".0868"/><stop id="stop252" stop-color="#6B6B6B" offset=".36"/><stop id="stop254" stop-color="#686868" offset=".5192"/><stop id="stop256" stop-color="#5F5F5F" offset=".6377"/><stop id="stop258" stop-color="#4E4E4E" offset=".7431"/><stop id="stop260" stop-color="#383838" offset=".8408"/><stop id="stop262" stop-color="#1B1B1B" offset=".9324"/><stop id="stop264" offset="1"/></linearGradient><linearGradient id="SVGID_23_" y2="-449.79998779296875" gradientUnits="userSpaceOnUse" x2="316.0299987792969" gradientTransform="matrix(1 0 0 -1 -213.76 -386.5)" y1="-449.79998779296875" x1="221.39999389648438"><stop id="stop269" stop-color="#808080" offset="0"/><stop id="stop271" stop-color="#7A7A7A" offset=".0868"/><stop id="stop273" stop-color="#828282" offset=".3817"/><stop id="stop275" stop-color="#808080" offset=".5185"/><stop id="stop277" stop-color="#797979" offset=".5677"/><stop id="stop279" stop-color="#6E6E6E" offset=".6027"/><stop id="stop281" stop-color="#6B6B6B" offset=".608"/><stop id="stop283" stop-color="#4E4E4E" offset="1"/></linearGradient><linearGradient id="SVGID_24_" y2="-431.3599853515625" gradientUnits="userSpaceOnUse" x2="314.3999938964844" gradientTransform="matrix(1 0 0 -1 -213.76 -386.5)" y1="-431.3599853515625" x1="214.58999633789062"><stop id="stop288" stop-color="#555555" offset="0"/><stop id="stop290-2" stop-color="#231F20" offset="1"/></linearGradient><linearGradient id="SVGID_25_" y2="-410.8800048828125" gradientUnits="userSpaceOnUse" x2="306.5" gradientTransform="matrix(1 0 0 -1 -213.76 -386.5)" y1="-410.8800048828125" x1="214.89999389648438"><stop id="stop295" stop-color="#A0A0A0" offset="0"/><stop id="stop297" stop-color="#656767" offset=".0769"/><stop id="stop299" stop-color="#717375" offset="1"/></linearGradient><linearGradient id="SVGID_26_" y2="-436.75" gradientUnits="userSpaceOnUse" x2="217.66000366210938" gradientTransform="matrix(1 0 0 -1 -213.76 -386.5)" y1="-436.75" x1="217.66000366210938"><stop id="stop314-6" stop-color="#FFF" offset="0"/><stop id="stop316-1" stop-color="#F4F4F4" offset=".078"/><stop id="stop318-8" stop-color="#CECECE" offset=".3807"/><stop id="stop320-7" stop-color="#BFBFBF" offset=".5396"/><stop id="stop322-9" stop-color="#7C7C7C" offset=".8357"/><stop id="stop324-2" stop-color="#A8A8A8" offset=".8996"/><stop id="stop326-0" stop-color="#9A9A9A" offset=".9093"/><stop id="stop328-2" stop-color="#7D7D7D" offset=".9327"/><stop id="stop330-3" stop-color="#686868" offset=".9558"/><stop id="stop332-7" stop-color="#5B5B5B" offset=".9785"/><stop id="stop334-5" stop-color="#575757" offset="1"/></linearGradient><linearGradient id="SVGID_27_" y2="-424.489990234375" gradientUnits="userSpaceOnUse" x2="322.8699951171875" gradientTransform="matrix(1 0 0 -1 -213.76 -386.5)" y1="-436.510009765625" x1="214.3300018310547"><stop id="stop339" stop-color="#FFF" offset="0"/><stop id="stop341" stop-color="#F4F4F4" offset=".078"/><stop id="stop343" stop-color="#CECECE" offset=".3807"/><stop id="stop345" stop-color="#BFBFBF" offset=".5396"/><stop id="stop347" stop-color="#7C7C7C" offset=".8357"/><stop id="stop349" stop-color="#A8A8A8" offset=".8996"/><stop id="stop351-9" stop-color="#9A9A9A" offset=".9093"/><stop id="stop353-2" stop-color="#7D7D7D" offset=".9327"/><stop id="stop355" stop-color="#686868" offset=".9558"/><stop id="stop357" stop-color="#5B5B5B" offset=".9785"/><stop id="stop359" stop-color="#575757" offset="1"/></linearGradient><linearGradient id="SVGID_28_" y2="-422.8500061035156" gradientUnits="userSpaceOnUse" x2="336.8800048828125" gradientTransform="matrix(1 0 0 -1 -213.76 -386.5)" y1="-436.4800109863281" x1="213.88999938964844"><stop id="stop364" stop-color="#FFF" offset="0"/><stop id="stop366" stop-color="#F4F4F4" offset=".078"/><stop id="stop368" stop-color="#CECECE" offset=".3807"/><stop id="stop370" stop-color="#BFBFBF" offset=".5396"/><stop id="stop372" stop-color="#7C7C7C" offset=".8357"/><stop id="stop374" stop-color="#A8A8A8" offset=".8996"/><stop id="stop376" stop-color="#9A9A9A" offset=".9093"/><stop id="stop378" stop-color="#7D7D7D" offset=".9327"/><stop id="stop380" stop-color="#686868" offset=".9558"/><stop id="stop382" stop-color="#5B5B5B" offset=".9785"/><stop id="stop384" stop-color="#575757" offset="1"/></linearGradient><linearGradient id="SVGID_29_" y2="537.6300048828125" gradientUnits="userSpaceOnUse" x2="507.239990234375" gradientTransform="translate(-406.16 -500.32)" y1="557" x1="411.25"><stop id="stop389" stop-color="#EDEDEE" offset="0"/><stop id="stop391" stop-color="#FFF" offset=".4176"/><stop id="stop393" stop-color="#F8F9F9" offset=".6264"/><stop id="stop395" stop-color="#BFC0C2" offset="1"/></linearGradient><linearGradient id="SVGID_30_" y2="516.4099731445312" gradientUnits="userSpaceOnUse" x2="418" gradientTransform="translate(-406.16 -500.32)" y1="516.4099731445312" x1="413.510009765625"><stop id="stop406" stop-color="#E2E3E4" offset="0"/><stop id="stop408" stop-color="#FFF" offset=".5055"/></linearGradient><linearGradient id="SVGID_31_" y2="545.72998046875" gradientUnits="userSpaceOnUse" x2="509.010009765625" gradientTransform="translate(-406.16 -500.32)" y1="568.27001953125" x1="414.25"><stop id="stop763" stop-color="#EDEDEE" offset="0"/><stop id="stop765" stop-color="#FFF" offset=".4176"/><stop id="stop767" stop-color="#F8F9F9" offset=".6264"/><stop id="stop769" stop-color="#B2B4B6" offset=".9505"/></linearGradient><linearGradient id="SVGID_32_" y2="555.9400024414062" gradientUnits="userSpaceOnUse" x2="511.82000732421875" gradientTransform="translate(-406.16 -500.32)" y1="578.5599975585938" x1="416.70001220703125"><stop id="stop774" stop-color="#EDEDEE" offset="0"/><stop id="stop776" stop-color="#FFF" offset=".4176"/><stop id="stop778" stop-color="#F8F9F9" offset=".6264"/><stop id="stop780" stop-color="#B2B4B6" offset=".9505"/></linearGradient><linearGradient id="SVGID_33_" y2="550.7999877929688" gradientUnits="userSpaceOnUse" x2="510.5899963378906" gradientTransform="translate(-406.16 -500.32)" y1="573.4199829101562" x1="415.4700012207031"><stop id="stop785" stop-color="#EDEDEE" offset="0"/><stop id="stop787" stop-color="#FFF" offset=".4176"/><stop id="stop789" stop-color="#F8F9F9" offset=".6264"/><stop id="stop791" stop-color="#B2B4B6" offset=".9505"/></linearGradient><linearGradient id="SVGID_34_" y2="547.8599853515625" gradientUnits="userSpaceOnUse" x2="509.8699951171875" gradientTransform="translate(-406.16 -500.32)" y1="570.47998046875" x1="414.7799987792969"><stop id="stop796" stop-color="#EDEDEE" offset="0"/><stop id="stop798" stop-color="#FFF" offset=".4176"/><stop id="stop800" stop-color="#F8F9F9" offset=".6264"/><stop id="stop802" stop-color="#B2B4B6" offset=".9505"/></linearGradient><linearGradient id="SVGID_35_" y2="548.4400024414062" gradientUnits="userSpaceOnUse" x2="510.0400085449219" gradientTransform="translate(-406.16 -500.32)" y1="571.0700073242188" x1="414.9200134277344"><stop id="stop807" stop-color="#EDEDEE" offset="0"/><stop id="stop809" stop-color="#FFF" offset=".4176"/><stop id="stop811" stop-color="#F8F9F9" offset=".6264"/><stop id="stop813" stop-color="#B2B4B6" offset=".9505"/></linearGradient><linearGradient id="SVGID_36_" y2="553.4400024414062" gradientUnits="userSpaceOnUse" x2="511.2300109863281" gradientTransform="translate(-406.16 -500.32)" y1="576.0700073242188" x1="416.1000061035156"><stop id="stop818" stop-color="#EDEDEE" offset="0"/><stop id="stop820" stop-color="#FFF" offset=".4176"/><stop id="stop822" stop-color="#F8F9F9" offset=".6264"/><stop id="stop824" stop-color="#B2B4B6" offset=".9505"/></linearGradient><linearGradient id="SVGID_37_" y2="514.8800048828125" gradientUnits="userSpaceOnUse" x2="501.5899963378906" gradientTransform="translate(-406.16 -500.32)" y1="535.4000244140625" x1="412.6199951171875"><stop id="stop831" stop-color="#FFF" offset="0"/><stop id="stop833" stop-color="#FFF" offset=".6538"/><stop id="stop835" stop-color="#CBCCCE" offset="1"/></linearGradient><linearGradient id="SVGID_39_" y2="-407.8699951171875" gradientUnits="userSpaceOnUse" x2="263.6199951171875" gradientTransform="matrix(1 0 0 -1 -213.76 -386.5)" y1="-407.8699951171875" x1="231.22999572753906"><stop id="stop861" stop-color="#696969" offset="0"/><stop id="stop863" stop-color="#2E2E2E" offset=".3702"/><stop id="stop865" stop-color="#424242" offset=".4554"/><stop id="stop867" stop-color="#303030" offset=".6014"/><stop id="stop869" stop-color="#4A4A4A" offset=".6947"/><stop id="stop871" stop-color="#666666" offset="1"/></linearGradient><linearGradient id="SVGID_40_" y2="-407.05999755859375" gradientUnits="userSpaceOnUse" x2="263.489990234375" gradientTransform="matrix(1 0 0 -1 -213.76 -386.5)" y1="-407.05999755859375" x1="231.6199951171875"><stop id="stop876" stop-color="#525252" offset="0"/><stop id="stop878" stop-color="#333333" offset=".1856"/><stop id="stop880" stop-color="#AEAEAE" offset=".354"/><stop id="stop882" stop-color="#ADADAD" offset=".4199"/><stop id="stop884" stop-color="#9D9D9D" offset=".4276"/><stop id="stop886" stop-color="#818181" offset=".4433"/><stop id="stop888" stop-color="#6A6A6A" offset=".4611"/><stop id="stop890" stop-color="#585858" offset=".4814"/><stop id="stop892" stop-color="#4C4C4C" offset=".506"/><stop id="stop894" stop-color="#444444" offset=".539"/><stop id="stop896" stop-color="#424242" offset=".6166"/><stop id="stop898" stop-color="#454545" offset=".6684"/><stop id="stop900" stop-color="#BDBDBD" offset="1"/></linearGradient><linearGradient id="SVGID_41_" y2="-410.5299987792969" gradientUnits="userSpaceOnUse" x2="235.88999938964844" gradientTransform="matrix(1 0 0 -1 -213.76 -386.5)" y1="-417.3299865722656" x1="236.9199981689453"><stop id="stop905" stop-color="#969696" offset="0"/><stop id="stop907" offset="1"/></linearGradient><linearGradient id="SVGID_42_" y2="524.469970703125" gradientUnits="userSpaceOnUse" x2="429.5299987792969" gradientTransform="translate(-406.16 -500.32)" y1="532.0499877929688" x1="428.7799987792969"><stop id="stop916" stop-color="#333333" offset="0"/><stop id="stop918" offset=".431"/><stop id="stop920" stop-color="#2E2E2E" offset="1"/></linearGradient><radialGradient id="SVGID_43_" gradientUnits="userSpaceOnUse" cy="-408.3599853515625" cx="251.80999755859375" gradientTransform="matrix(1 0 0 -1 -213.76 -386.5)" r="72.7509994506836"><stop id="stop931" stop-opacity="0" offset="0"/><stop id="stop933" stop-opacity=".08" offset=".8022"/><stop id="stop935" stop-opacity=".3882" offset="1"/></radialGradient></defs><g class="currentLayer" style=""><title>Layer 1</title><g id="Wikipedia" class="selected" fill="#ffffff" fill-opacity="1"><path id="path3898" d="m10.747999210625888,3.6130110168457037 s-0.3660000000000001,-0.7460000000000002 -0.4910000000000001,-0.994 c-0.8340000000000002,-1.649 -0.8160000000000002,-1.737 -1.6590000000000005,-1.8530000000000002 c-0.23600000000000004,-0.030000000000000013 -0.3580000000000001,-0.06100000000000002 -0.3580000000000001,-0.17800000000000005 v-0.522 l0.07100000000000002,-0.05200000000000002 c1.522,-0.002000000000000001 4.912,-0.002000000000000001 4.912,-0.002000000000000001 l0.13,0.04300000000000002 v0.521 c0,0.11900000000000004 -0.08500000000000003,0.18000000000000005 -0.258,0.18000000000000005 l-0.3560000000000001,0.05100000000000002 c-0.8990000000000002,0.07 -0.7530000000000002,0.4380000000000001 -0.15500000000000005,1.629 l5.678,11.615 l0.19300000000000006,0.05300000000000002 l5.04,-11.961 c0.17600000000000005,-0.4810000000000001 0.14800000000000005,-0.8230000000000002 -0.07700000000000003,-1.024 c-0.22600000000000006,-0.19200000000000006 -0.3850000000000001,-0.3120000000000001 -0.9690000000000002,-0.3360000000000002 l-0.4730000000000001,-0.021000000000000008 c-0.05900000000000002,0 -0.11300000000000003,-0.021000000000000008 -0.16600000000000006,-0.06200000000000002 c-0.05200000000000002,-0.03700000000000001 -0.07900000000000003,-0.08600000000000003 -0.07900000000000003,-0.14500000000000005 v-0.4980000000000001 l0.07200000000000002,-0.05100000000000002 h5.6930000000000005 l0.05900000000000002,0.05100000000000002 v0.4980000000000001 c0,0.135 -0.07700000000000003,0.203 -0.22900000000000006,0.203 c-0.7460000000000002,0.032000000000000015 -1.299,0.19400000000000006 -1.657,0.4830000000000001 c-0.3580000000000001,0.2910000000000001 -0.6390000000000002,0.6880000000000004 -0.8400000000000002,1.213 c0,0 -4.635,10.606 -6.221,14.136 c-0.6070000000000002,1.155 -1.204,1.049 -1.729,-0.033000000000000015 c-1.109,-2.285 -4.232,-9.213 -4.232,-9.213 l-1.899,-3.74 z" fill="#ffffff" fill-opacity="1"/><path id="path3900" d="m19.84399921062589,0.013011016845709378 s-3.203,-0.010000000000000004 -4.6290000000000004,0 l-0.07100000000000002,0.05100000000000002 v0.4960000000000001 c0,0.06200000000000002 0.026000000000000013,0.10900000000000003 0.07800000000000003,0.14600000000000005 c0.05300000000000002,0.039000000000000014 0.10600000000000002,0.05900000000000002 0.16500000000000006,0.05900000000000002 l0.22900000000000006,0.02500000000000001 c0.5830000000000002,0.021000000000000008 0.8520000000000002,0.17800000000000005 0.932,0.271 c0.139,0.17 0.20800000000000005,0.3540000000000001 -0.13,1.088 l-5.979,11.931000000000001 l-0.15700000000000006,-0.041000000000000016 s-4.283,-9.03 -5.522,-12.056 c-0.129,-0.3120000000000001 -0.18800000000000006,-0.545 -0.18800000000000006,-0.6880000000000004 c0,-0.3070000000000001 0.277,-0.4730000000000001 0.8310000000000002,-0.4940000000000001 l0.6460000000000002,-0.027000000000000014 c0.171,0 0.258,-0.06500000000000003 0.258,-0.203 v-0.4950000000000001 l-0.05900000000000002,-0.05200000000000002 s-5.13,-0.006000000000000004 -6.189,0 l-0.05900000000000002,0.05200000000000002 v0.521 c0,0.09400000000000006 0.11900000000000004,0.15000000000000005 0.3580000000000001,0.17800000000000005 c0.6510000000000002,0.035 1.079,0.14200000000000004 1.2850000000000001,0.3120000000000001 c0.20500000000000004,0.17600000000000005 0.4220000000000001,0.6170000000000002 0.7100000000000002,1.307 c1.557,3.74 4.865,10.414 6.476,14.215 c0.464,1.039 1.047,1.199 1.7550000000000003,-0.030000000000000013 c1.227,-2.2720000000000002 4.551,-9.22 4.551,-9.22 l2.6180000000000003,-4.896 c0.3050000000000001,-0.519 0.5990000000000002,-0.979 0.7470000000000002,-1.19 c0.273,-0.3960000000000002 0.4270000000000001,-0.467 1.173,-0.502 c0.15100000000000005,0 0.22900000000000006,-0.06600000000000003 0.22900000000000006,-0.20500000000000004 v-0.4960000000000001 l-0.05800000000000002,-0.07 z" fill="#ffffff" fill-opacity="1"/><path id="path3904" d="m29.582999210625886,15.493011016845713 c0,0.5710000000000002 0.261,0.91 1.093,0.987 l0.546,0.05400000000000002 c0.07800000000000003,0 0.15600000000000006,0.05100000000000002 0.15600000000000006,0.15500000000000005 v0.546 l-0.026000000000000013,0.05300000000000002 s-1.9769999999999999,-0.05300000000000002 -2.782,-0.05300000000000002 c-0.7280000000000002,0 -2.7560000000000002,0.05300000000000002 -2.7560000000000002,0.05300000000000002 l-0.05200000000000002,-0.05300000000000002 v-0.546 c0,-0.10400000000000002 0.07800000000000003,-0.15500000000000005 0.18200000000000005,-0.15500000000000005 l0.521,-0.05400000000000002 c0.8570000000000002,-0.07700000000000003 1.117,-0.4930000000000001 1.117,-0.987 v-8.658 c0,-0.5670000000000002 -0.3120000000000001,-0.7290000000000002 -1.117,-0.805 l-0.521,-0.05400000000000002 c-0.10400000000000002,0 -0.18200000000000005,-0.024000000000000007 -0.18200000000000005,-0.10400000000000002 v-0.5990000000000002 l0.02500000000000001,-0.05300000000000002 s2.055,0.05300000000000002 2.8600000000000003,0.05300000000000002 c0.7020000000000002,0 2.704,-0.05300000000000002 2.704,-0.05300000000000002 l0.026000000000000013,0.05300000000000002 v0.5720000000000002 c0,0.07800000000000003 -0.05300000000000002,0.129 -0.15600000000000006,0.129 l-0.546,0.05400000000000002 c-0.807,0.07700000000000003 -1.093,0.2860000000000001 -1.093,0.807 v8.66 z" fill="#ffffff" fill-opacity="1"/><path id="path3906" d="m37.25599921062589,15.493011016845713 c0,0.5710000000000002 0.3380000000000002,0.8580000000000002 1.092,0.987 l0.2860000000000001,0.05400000000000002 c0.07800000000000003,0.024000000000000007 0.15500000000000005,0.05100000000000002 0.15500000000000005,0.15500000000000005 v0.546 l-0.02500000000000001,0.05300000000000002 s-1.6390000000000002,-0.05300000000000002 -2.418,-0.05300000000000002 c-0.7290000000000002,0 -2.8600000000000003,0.05300000000000002 -2.8600000000000003,0.05300000000000002 l-0.05200000000000002,-0.05300000000000002 v-0.546 c0,-0.10400000000000002 0.07800000000000003,-0.15500000000000005 0.18200000000000005,-0.15500000000000005 l0.521,-0.05400000000000002 c0.779,-0.07700000000000003 1.118,-0.4930000000000001 1.118,-0.987 v-8.658 c0,-0.5670000000000002 -0.2860000000000001,-0.7290000000000002 -1.118,-0.805 l-0.521,-0.05400000000000002 c-0.10400000000000002,0 -0.18200000000000005,-0.024000000000000007 -0.18200000000000005,-0.10400000000000002 v-0.5990000000000002 l0.026000000000000013,-0.05300000000000002 s2.132,0.05300000000000002 2.938,0.05300000000000002 c0.7290000000000002,0 2.366,-0.05300000000000002 2.366,-0.05300000000000002 l0.02500000000000001,0.05300000000000002 v0.5720000000000002 c0,0.07800000000000003 -0.05200000000000002,0.10400000000000002 -0.15500000000000005,0.129 l-0.2860000000000001,0.05400000000000002 c-0.807,0.15500000000000005 -1.092,0.2860000000000001 -1.092,0.807 v3.9290000000000003 c0.8570000000000002,0 1.352,-0.4380000000000001 2.496,-1.6640000000000001 c1.039,-1.146 1.846,-2.104 1.846,-2.603 c0,-0.20900000000000005 -0.234,-0.4380000000000001 -0.7540000000000002,-0.521 c-0.10400000000000002,-0.024000000000000007 -0.15600000000000006,-0.05300000000000002 -0.15600000000000006,-0.131 v-0.6000000000000002 l0.026000000000000013,-0.023000000000000013 s2.105,0.05100000000000002 2.859,0.05100000000000002 c0.6760000000000004,0 1.82,-0.05100000000000002 1.82,-0.05100000000000002 l0.07800000000000003,0.023000000000000013 v0.6000000000000002 c0,0.07800000000000003 -0.07800000000000003,0.131 -0.20800000000000005,0.131 c-1.015,0.07800000000000003 -1.7160000000000002,0.129 -2.652,1.195 l-2.236,2.572 c-0.4410000000000001,0.4710000000000001 -0.5980000000000002,0.7540000000000002 -0.5980000000000002,0.9630000000000002 c0,0.15600000000000006 0.10400000000000002,0.2850000000000001 0.234,0.4390000000000001 l3.926,4.732 c0.3120000000000001,0.3600000000000001 0.936,0.52 1.456,0.6220000000000002 l0.13,0.022000000000000013 c0.07800000000000003,0.02500000000000001 0.18200000000000005,0.07800000000000003 0.18200000000000005,0.15600000000000006 v0.545 l-0.07700000000000003,0.026000000000000013 s-1.379,-0.026000000000000013 -2.106,-0.026000000000000013 c-0.6500000000000002,0 -1.586,0.026000000000000013 -1.586,0.026000000000000013 l-0.026000000000000013,-0.026000000000000013 v-0.3120000000000001 c0,-0.3380000000000002 -0.02500000000000001,-0.6230000000000002 -0.3900000000000001,-1.037 l-2.886,-3.59 c-0.3910000000000001,-0.521 -0.807,-0.6470000000000002 -1.3780000000000001,-0.6470000000000002 v3.8600000000000003 z" fill="#ffffff" fill-opacity="1"/><path id="path3908" d="m51.27299921062588,15.493011016845713 c0,0.5710000000000002 0.26,0.91 1.092,0.987 l0.546,0.05400000000000002 c0.07800000000000003,0 0.15600000000000006,0.05100000000000002 0.15600000000000006,0.15500000000000005 v0.546 l-0.026000000000000013,0.05300000000000002 s-1.976,-0.05300000000000002 -2.781,-0.05300000000000002 c-0.7290000000000002,0 -2.7560000000000002,0.05300000000000002 -2.7560000000000002,0.05300000000000002 l-0.05300000000000002,-0.05300000000000002 v-0.546 c0,-0.10400000000000002 0.07800000000000003,-0.15500000000000005 0.18300000000000005,-0.15500000000000005 l0.52,-0.05400000000000002 c0.8580000000000002,-0.07700000000000003 1.118,-0.4930000000000001 1.118,-0.987 v-8.658 c0,-0.5670000000000002 -0.3120000000000001,-0.7290000000000002 -1.118,-0.805 l-0.52,-0.05400000000000002 c-0.10400000000000002,0 -0.18300000000000005,-0.024000000000000007 -0.18300000000000005,-0.10400000000000002 v-0.5990000000000002 l0.026000000000000013,-0.05300000000000002 s2.054,0.05300000000000002 2.8600000000000003,0.05300000000000002 c0.7010000000000002,0 2.7030000000000003,-0.05300000000000002 2.7030000000000003,-0.05300000000000002 l0.026000000000000013,0.05300000000000002 v0.5720000000000002 c0,0.07800000000000003 -0.05200000000000002,0.129 -0.15600000000000006,0.129 l-0.546,0.05400000000000002 c-0.806,0.07700000000000003 -1.092,0.2860000000000001 -1.092,0.807 v8.66 z" fill="#ffffff" fill-opacity="1"/><path id="path3910" d="m56.89099921062589,6.8830110168457 c0,-0.807 -0.3380000000000002,-0.8320000000000002 -1.561,-0.91 c-0.15500000000000005,0 -0.18200000000000005,-0.07800000000000003 -0.18200000000000005,-0.131 v-0.5980000000000002 l0.05200000000000002,-0.02500000000000001 c0.3910000000000001,0 1.924,0.05100000000000002 2.68,0.05100000000000002 c0.7280000000000002,0 1.7680000000000002,-0.05100000000000002 2.729,-0.05100000000000002 c3.6900000000000004,0 4.366,1.818 4.366,3.172 c0,1.562 -0.7540000000000002,4.004 -4.444,4.004 c-0.6480000000000002,0 -1.17,-0.05300000000000002 -1.6400000000000001,-0.26 v3.482 c0,0.5680000000000002 0.3120000000000001,0.7030000000000002 1.146,0.8320000000000002 l0.521,0.07800000000000003 c0.10400000000000002,0.023000000000000013 0.18500000000000005,0.05300000000000002 0.18500000000000005,0.15200000000000005 v0.547 l-0.021000000000000008,0.055000000000000014 s-2.082,-0.055000000000000014 -2.89,-0.055000000000000014 c-0.7280000000000002,0 -2.678,0.055000000000000014 -2.678,0.055000000000000014 l-0.02500000000000001,-0.055000000000000014 v-0.547 c0,-0.10400000000000002 0.05200000000000002,-0.129 0.15500000000000005,-0.15200000000000005 l0.546,-0.07800000000000003 c0.807,-0.10400000000000002 1.066,-0.3380000000000002 1.066,-0.8320000000000002 l-0.005000000000000002,-8.73 zm2.002,4.53 c0.52,0.20900000000000005 1.17,0.233 1.6880000000000004,0.233 c1.562,0 2.3120000000000003,-0.9380000000000002 2.3120000000000003,-2.938 c0,-2.236 -1.014,-2.73 -2.442,-2.73 c-1.249,0 -1.562,0.234 -1.562,0.91 l0.004000000000000002,4.53 z" fill="#ffffff" fill-opacity="1"/><path id="path3912" d="m69.45299921062589,17.233011016845694 c-0.779,0 -2.572,0.05400000000000002 -2.572,0.05400000000000002 l-0.027000000000000014,-0.05400000000000002 v-0.5710000000000002 c0,-0.05100000000000002 0.027000000000000014,-0.129 0.15600000000000006,-0.129 l0.6020000000000002,-0.05400000000000002 c0.807,-0.07700000000000003 1.041,-0.5980000000000002 1.041,-1.116 v-8.58 c0,-0.6010000000000002 -0.3120000000000001,-0.7030000000000002 -1.041,-0.7540000000000002 l-0.6020000000000002,-0.05400000000000002 c-0.15600000000000006,-0.024000000000000007 -0.15600000000000006,-0.07800000000000003 -0.15600000000000006,-0.10400000000000002 v-0.5990000000000002 l0.027000000000000014,-0.05300000000000002 s2.026,0.05300000000000002 2.807,0.05300000000000002 h3.822 c0.779,0 2.6270000000000002,-0.05300000000000002 2.6270000000000002,-0.05300000000000002 l0.056000000000000015,0.05300000000000002 c0.022000000000000013,1.117 0.20400000000000001,2.134 0.3900000000000001,3.121 l-0.6460000000000002,0.10400000000000002 c-0.2850000000000001,-0.9630000000000002 -0.779,-2.34 -2.443,-2.34 h-2.08 c-0.4930000000000001,0 -0.7540000000000002,0.18200000000000005 -0.7540000000000002,0.6230000000000002 v3.771 h1.949 c0.7290000000000002,0 0.91,-0.3120000000000001 1.015,-0.8320000000000002 l0.15500000000000005,-0.547 c0,-0.07800000000000003 0.05300000000000002,-0.131 0.15600000000000006,-0.131 h0.4380000000000001 c0.057000000000000016,0 0.057000000000000016,0.027000000000000014 0.057000000000000016,0.07800000000000003 c-0.057000000000000016,0.5680000000000002 -0.15600000000000006,1.3010000000000002 -0.15600000000000006,1.9260000000000002 c0,0.6480000000000002 0.10400000000000002,1.195 0.15600000000000006,1.7930000000000001 l-0.057000000000000016,0.05300000000000002 h-0.4380000000000001 c-0.129,0 -0.18700000000000006,-0.05300000000000002 -0.18700000000000006,-0.131 l-0.13,-0.5700000000000002 c-0.10400000000000002,-0.521 -0.3380000000000002,-0.807 -1.019,-0.807 h-1.948 v3.979 c0,0.4900000000000001 0.2830000000000001,0.984 0.7540000000000002,0.984 h2.47 c1.326,0 2.057,-0.8320000000000002 2.366,-2.188 l0.6480000000000002,0.07800000000000003 l-0.521,2.989 l-0.05200000000000002,0.05200000000000002 s-1.534,-0.05200000000000002 -2.3120000000000003,-0.05200000000000002 l-4.551,0.010000000000000004 z" fill="#ffffff" fill-opacity="1"/><path id="path3914" d="m79.23099921062588,16.533011016845705 l0.5980000000000002,-0.05400000000000002 c0.781,-0.07700000000000003 1.041,-0.3110000000000001 1.041,-1.116 v-8.58 c0,-0.6790000000000004 -0.18400000000000005,-0.6790000000000004 -1.041,-0.7540000000000002 l-0.5690000000000002,-0.05400000000000002 c-0.10400000000000002,0 -0.18500000000000005,-0.05300000000000002 -0.18500000000000005,-0.131 v-0.5720000000000002 l0.02500000000000001,-0.05100000000000002 s2.289,0.05100000000000002 2.758,0.05100000000000002 c0.4920000000000001,0 2.7560000000000002,-0.05100000000000002 3.432,-0.05100000000000002 c4.343,0 6.476,2.7030000000000003 6.476,6.162 c0,4.551 -3.226,5.9 -6.107,5.9 c-2.08,0 -2.988,-0.055000000000000014 -3.795,-0.055000000000000014 c-0.781,0 -2.7600000000000002,0.055000000000000014 -2.7600000000000002,0.055000000000000014 l-0.023000000000000013,-0.055000000000000014 v-0.547 c-0.006000000000000004,-0.08000000000000003 0.047000000000000014,-0.16000000000000006 0.15000000000000005,-0.16000000000000006 zm5.799,0 c2.859,0 4.474,-1.062 4.474,-4.707 c0,-2.7030000000000003 -0.6000000000000002,-5.851 -4.968,-5.851 c-1.014,0 -1.6640000000000001,0.15600000000000006 -1.6640000000000001,0.808 v8.58 c0,0.7300000000000002 0.18100000000000005,1.17 2.158,1.17 z" fill="#ffffff" fill-opacity="1"/><path id="path3916" d="m97.90099921062588,15.493011016845713 c0,0.5710000000000002 0.26,0.91 1.092,0.987 l0.546,0.05400000000000002 c0.07800000000000003,0 0.15600000000000006,0.05100000000000002 0.15600000000000006,0.15500000000000005 v0.546 l-0.02500000000000001,0.05300000000000002 s-1.9769999999999999,-0.05300000000000002 -2.781,-0.05300000000000002 c-0.7290000000000002,0 -2.7560000000000002,0.05300000000000002 -2.7560000000000002,0.05300000000000002 l-0.05400000000000002,-0.05300000000000002 v-0.546 c0,-0.10400000000000002 0.07800000000000003,-0.15500000000000005 0.18300000000000005,-0.15500000000000005 l0.521,-0.05400000000000002 c0.8570000000000002,-0.07700000000000003 1.118,-0.4930000000000001 1.118,-0.987 v-8.658 c0,-0.5670000000000002 -0.3120000000000001,-0.7290000000000002 -1.118,-0.805 l-0.521,-0.05400000000000002 c-0.10400000000000002,0 -0.18300000000000005,-0.024000000000000007 -0.18300000000000005,-0.10400000000000002 v-0.5990000000000002 l0.026000000000000013,-0.05300000000000002 s2.054,0.05300000000000002 2.858,0.05300000000000002 c0.6980000000000004,0 2.705,-0.05300000000000002 2.705,-0.05300000000000002 l0.021000000000000008,0.05300000000000002 v0.5720000000000002 c0,0.07800000000000003 -0.056000000000000015,0.129 -0.15600000000000006,0.129 l-0.54,0.05000000000000002 c-0.809,0.07700000000000003 -1.092,0.2860000000000001 -1.092,0.807 v8.66 z" fill="#ffffff" fill-opacity="1"/><path id="path3918" d="m105.91099921062589,16.483011016845694 l0.7540000000000002,0.05400000000000002 c0.10400000000000002,0 0.20800000000000005,0.07800000000000003 0.20800000000000005,0.20700000000000005 v0.4930000000000001 l-0.05200000000000002,0.05400000000000002 s-2.834,-0.05400000000000002 -3.458,-0.05400000000000002 c-0.6770000000000004,0 -2.341,0.05400000000000002 -2.341,0.05400000000000002 l-0.05300000000000002,-0.05400000000000002 v-0.4930000000000001 c0,-0.129 0.07800000000000003,-0.20700000000000005 0.20900000000000005,-0.20700000000000005 c1.145,-0.07800000000000003 1.7930000000000001,-0.2870000000000001 2.521,-1.951 l5.771,-13.521 c0.2850000000000001,-0.6760000000000004 0.4940000000000001,-0.9380000000000002 0.8880000000000002,-0.9380000000000002 c0.3600000000000001,0 0.4910000000000001,0.262 0.6980000000000004,0.781 l5.33,14.092 c0.3650000000000001,1.016 0.8880000000000002,1.404 1.928,1.508 l0.2830000000000001,0.02500000000000001 c0.131,0 0.263,0.07400000000000002 0.263,0.20900000000000005 v0.4900000000000001 l-0.07800000000000003,0.055000000000000014 s-2.002,-0.055000000000000014 -3.019,-0.055000000000000014 c-0.91,0 -3.459,0.055000000000000014 -3.459,0.055000000000000014 l-0.022000000000000013,-0.055000000000000014 v-0.4900000000000001 c0,-0.135 0.05300000000000002,-0.20900000000000005 0.18800000000000006,-0.20900000000000005 l0.7280000000000002,-0.055000000000000014 c0.987,-0.07800000000000003 1.354,-0.3920000000000001 1.092,-1.115 l-1.586,-4.396 h-5.409 c-0.6240000000000002,0 -0.78,0.10400000000000002 -0.909,0.4390000000000001 l-1.51,3.771 c-0.26,0.6800000000000004 0.08000000000000003,1.25 1.04,1.33 zm6.37,-6.61 l-2.521,-6.941 h-0.05300000000000002 l-2.6,6.604 c-0.10400000000000002,0.265 0.07700000000000003,0.3380000000000002 0.6490000000000002,0.3380000000000002 h4.52 z" fill="#ffffff" fill-opacity="1"/></g></g></svg>